<svg height="511pt" viewBox="-6 0 511 511.999" width="511pt" xmlns="http://www.w3.org/2000/svg"><path d="m435.453125 424.851562-179.03125 85.59375c-4.335937 2.070313-9.375 2.070313-13.707031 0l-179.03125-85.59375c-13.175782-6.296874-21.558594-19.601562-21.558594-34.203124v-390.648438h414.886719v390.648438c0 14.601562-8.386719 27.90625-21.558594 34.203124zm0 0" fill="#99e2ff"/><path d="m402.191406 0v363.324219c0 14.605469-8.386718 27.90625-21.5625 34.207031l-187.488281 89.210938 49.574219 23.703124c4.332031 2.070313 9.371094 2.070313 13.707031 0l179.03125-85.59375c13.175781-6.296874 21.558594-19.601562 21.558594-34.203124v-390.648438zm0 0" fill="#6bd"/><path d="m475.164062 46.941406h-451.195312c-12.960938 0-23.46875-10.507812-23.46875-23.46875 0-12.964844 10.507812-23.472656 23.46875-23.472656h451.195312c12.964844 0 23.472657 10.507812 23.472657 23.46875 0 12.964844-10.507813 23.472656-23.472657 23.472656zm0 0" fill="#ff8533"/><path d="m389.929688 242.144531c0 77.519531-62.84375 140.363281-140.363282 140.363281-77.519531 0-140.363281-62.84375-140.363281-140.363281 0-77.523437 62.84375-140.363281 140.363281-140.363281 77.519532 0 140.363282 62.839844 140.363282 140.363281zm0 0" fill="#fd82bb"/><path d="m249.566406 101.78125c-9.367187 0-18.519531.925781-27.375 2.675781 64.410156 12.734375 112.984375 69.535157 112.984375 137.6875 0 68.148438-48.574219 124.949219-112.984375 137.683594 8.855469 1.75 18.007813 2.679687 27.375 2.679687 77.519532 0 140.363282-62.84375 140.363282-140.363281 0-77.523437-62.84375-140.363281-140.363282-140.363281zm0 0" fill="#ed5dac"/><path d="m255.949219 153.390625 20.15625 53.601563 57.203125 2.601562c6.289062.289062 8.867187 8.214844 3.945312 12.140625l-44.75 35.734375 15.203125 55.210938c1.671875 6.066406-5.074219 10.96875-10.328125 7.503906l-47.8125-31.519532-47.808594 31.519532c-5.257812 3.464844-12-1.433594-10.328124-7.503906l15.199218-55.210938-44.75-35.734375c-4.917968-3.925781-2.34375-11.851563 3.945313-12.140625l57.207031-2.601562 20.152344-53.601563c2.21875-5.894531 10.550781-5.894531 12.765625 0zm0 0" fill="#f8fbff"/></svg>